<?xml version="1.0" encoding="UTF-8" standalone="no"?>
<svg
   xmlns:dc="http://purl.org/dc/elements/1.1/"
   xmlns:cc="http://creativecommons.org/ns#"
   xmlns:rdf="http://www.w3.org/1999/02/22-rdf-syntax-ns#"
   xmlns:svg="http://www.w3.org/2000/svg"
   xmlns="http://www.w3.org/2000/svg"
   xmlns:sodipodi="http://sodipodi.sourceforge.net/DTD/sodipodi-0.dtd"
   xmlns:inkscape="http://www.inkscape.org/namespaces/inkscape"
   version="1.0"
   width="100"
   height="100"
   viewBox="0 0 80 80"
   preserveAspectRatio="xMidYMid meet"
   id="svg3051"
   inkscape:version="0.48.2 r9819"
   sodipodi:docname="buoybifurcationchannel.svg">
  <defs
     id="defs3061" />
  <sodipodi:namedview
     pagecolor="#ffffff"
     bordercolor="#666666"
     borderopacity="1"
     objecttolerance="10"
     gridtolerance="10"
     guidetolerance="10"
     inkscape:pageopacity="0"
     inkscape:pageshadow="2"
     inkscape:window-width="1932"
     inkscape:window-height="951"
     id="namedview3059"
     showgrid="false"
     fit-margin-top="0"
     fit-margin-left="0"
     fit-margin-right="0"
     fit-margin-bottom="0"
     inkscape:zoom="6.52"
     inkscape:cx="39.259969"
     inkscape:cy="53.404908"
     inkscape:window-x="0"
     inkscape:window-y="22"
     inkscape:window-maximized="0"
     inkscape:current-layer="svg3051" />
  <metadata
     id="metadata3053">
Created by potrace 1.11, written by Peter Selinger 2001-2013
<rdf:RDF>
  <cc:Work
     rdf:about="">
    <dc:format>image/svg+xml</dc:format>
    <dc:type
       rdf:resource="http://purl.org/dc/dcmitype/StillImage" />
  </cc:Work>
</rdf:RDF>
</metadata>
  <g
     transform="matrix(0.14545455,0,0,-0.14285714,-8.727273,82.857141)"
     id="g3055"
     style="fill:#ff0000;stroke:none">
    <path
       d="M 162,307 C 106,157 60,31 60,27 c 0,-4 124,-7 275,-7 151,0 275,3 275,6 0,4 -157,413 -207,542 -3,8 -28,12 -72,12 L 264,580 162,307 z M 365,548 C 382,470 470,47 470,39 c 0,-5 -59,-9 -135,-9 -110,0 -135,3 -135,14 0,8 23,126 50,262 28,136 50,251 50,256 0,4 13,8 30,8 23,0 31,-5 35,-22 z"
       id="path3057"
       style="fill:#ff0000"
       inkscape:connector-curvature="0" />
  </g>
</svg>
