<?xml version="1.0" encoding="UTF-8" standalone="no"?>
<!-- Created with Inkscape (http://www.inkscape.org/) -->

<svg
   xmlns:dc="http://purl.org/dc/elements/1.1/"
   xmlns:cc="http://creativecommons.org/ns#"
   xmlns:rdf="http://www.w3.org/1999/02/22-rdf-syntax-ns#"
   xmlns:svg="http://www.w3.org/2000/svg"
   xmlns="http://www.w3.org/2000/svg"
   xmlns:sodipodi="http://sodipodi.sourceforge.net/DTD/sodipodi-0.dtd"
   xmlns:inkscape="http://www.inkscape.org/namespaces/inkscape"
   width="318.14285"
   height="123.35712"
   id="svg2"
   version="1.1"
   inkscape:version="0.48.2 r9819"
   sodipodi:docname="buoymooring.svg">
  <defs
     id="defs4" />
  <sodipodi:namedview
     id="base"
     pagecolor="#ffffff"
     bordercolor="#666666"
     borderopacity="1.0"
     inkscape:pageopacity="0.0"
     inkscape:pageshadow="2"
     inkscape:zoom="0.35"
     inkscape:cx="304.07143"
     inkscape:cy="245.71426"
     inkscape:document-units="px"
     inkscape:current-layer="layer1"
     showgrid="false"
     inkscape:window-width="937"
     inkscape:window-height="680"
     inkscape:window-x="928"
     inkscape:window-y="282"
     inkscape:window-maximized="0"
     fit-margin-top="0"
     fit-margin-left="0"
     fit-margin-right="0"
     fit-margin-bottom="0" />
  <metadata
     id="metadata7">
    <rdf:RDF>
      <cc:Work
         rdf:about="">
        <dc:format>image/svg+xml</dc:format>
        <dc:type
           rdf:resource="http://purl.org/dc/dcmitype/StillImage" />
        <dc:title></dc:title>
      </cc:Work>
    </rdf:RDF>
  </metadata>
  <g
     inkscape:label="Layer 1"
     inkscape:groupmode="layer"
     id="layer1"
     transform="translate(-70.928571,-426.1479)">
    <path
       style="fill:none;stroke:#000000;stroke-width:1px;stroke-linecap:butt;stroke-linejoin:miter;stroke-opacity:1"
       d="m 354.28571,432.36218 -282.857139,0 14.285715,57.14286 74.285714,20 114.28571,-2.85714 71.42858,0 42.85714,-77.14286 L 340,426.6479 71.428571,432.36218"
       id="path2985"
       inkscape:connector-curvature="0" />
    <path
       style="fill:#000000;fill-opacity:1"
       d="m 132.71429,500.29376 c -13.35715,-3.76779 -28.96612,-8.13391 -34.686623,-9.70251 -10.270845,-2.81632 -10.480663,-3.17477 -16.779311,-28.66597 -3.508124,-14.1977 -5.899146,-26.29247 -5.313382,-26.87728 0.952128,-0.95056 308.211196,-3.52704 308.208856,-2.58444 -0.003,1.22952 -38.05773,68.49417 -39.58311,69.9663 -1.01554,0.98007 -43.63215,2.44176 -94.70358,3.24819 -91.54729,1.44556 -93.19972,1.3696 -117.14285,-5.38429 z"
       id="path2987"
       inkscape:connector-curvature="0" />
    <path
       sodipodi:type="arc"
       style="fill:#000000;fill-opacity:1"
       id="path2989"
       sodipodi:cx="280"
       sodipodi:cy="535.2193"
       sodipodi:rx="25.714285"
       sodipodi:ry="25.714285"
       d="m 305.71428,535.2193 c 0,14.20161 -11.51267,25.71428 -25.71428,25.71428 -14.20161,0 -25.71428,-11.51267 -25.71428,-25.71428 0,-14.20161 11.51267,-25.71429 25.71428,-25.71429 14.20161,0 25.71428,11.51268 25.71428,25.71429 z"
       transform="translate(0,-11.428571)" />
    <path
       sodipodi:type="arc"
       style="fill:#ffffff;fill-opacity:1"
       id="path2991"
       sodipodi:cx="158.57143"
       sodipodi:cy="735.2193"
       sodipodi:rx="12.857142"
       sodipodi:ry="17.142857"
       d="m 171.42857,735.2193 c 0,9.46774 -5.75634,17.14286 -12.85714,17.14286 -7.10081,0 -12.85715,-7.67512 -12.85715,-17.14286 0,-9.46774 5.75634,-17.14286 12.85715,-17.14286 7.1008,0 12.85714,7.67512 12.85714,17.14286 z"
       transform="translate(120,-211.42857)" />
  </g>
</svg>
