<?xml version="1.0" encoding="UTF-8" standalone="no"?>
<!-- Created with Inkscape (http://www.inkscape.org/) -->

<svg
   xmlns:dc="http://purl.org/dc/elements/1.1/"
   xmlns:cc="http://creativecommons.org/ns#"
   xmlns:rdf="http://www.w3.org/1999/02/22-rdf-syntax-ns#"
   xmlns:svg="http://www.w3.org/2000/svg"
   xmlns="http://www.w3.org/2000/svg"
   xmlns:sodipodi="http://sodipodi.sourceforge.net/DTD/sodipodi-0.dtd"
   xmlns:inkscape="http://www.inkscape.org/namespaces/inkscape"
   width="10.564967"
   height="35.447777"
   id="svg2988"
   version="1.1"
   inkscape:version="0.48.2 r9819"
   sodipodi:docname="buoylitpink.svg">
  <defs
     id="defs3" />
  <sodipodi:namedview
     inkscape:document-units="mm"
     id="base"
     pagecolor="#ffffff"
     bordercolor="#666666"
     borderopacity="1.0"
     inkscape:pageopacity="0.0"
     inkscape:pageshadow="2"
     inkscape:zoom="13.365671"
     inkscape:cx="17.73781"
     inkscape:cy="25.482262"
     inkscape:current-layer="layer1"
     showgrid="false"
     units="mm"
     fit-margin-top="0"
     fit-margin-left="0"
     fit-margin-right="0"
     fit-margin-bottom="0"
     inkscape:window-width="975"
     inkscape:window-height="899"
     inkscape:window-x="1995"
     inkscape:window-y="165"
     inkscape:window-maximized="0" />
  <metadata
     id="metadata4">
    <rdf:RDF>
      <cc:Work
         rdf:about="">
        <dc:format>image/svg+xml</dc:format>
        <dc:type
           rdf:resource="http://purl.org/dc/dcmitype/StillImage" />
        <dc:title></dc:title>
      </cc:Work>
    </rdf:RDF>
  </metadata>
  <g
     inkscape:label="Layer 1"
     inkscape:groupmode="layer"
     id="layer1"
     transform="translate(-193.4945,-368.37354)">
    <rect
       style="fill:#de8787;fill-opacity:1;stroke:none"
       id="rect2994"
       width="11.694063"
       height="12.282767"
       x="426.88025"
       y="-13.499821"
       transform="matrix(0.45213945,0.89194726,-0.39858215,0.91713263,0,0)" />
    <path
       sodipodi:type="arc"
       style="fill:#de8787;fill-opacity:1;stroke:none"
       id="path2996"
       sodipodi:cx="242.85715"
       sodipodi:cy="388.07648"
       sodipodi:rx="31.428572"
       sodipodi:ry="32.857143"
       d="m 274.28572,388.07648 c 0,18.1465 -14.07105,32.85714 -31.42857,32.85714 -17.35752,0 -31.42857,-14.71064 -31.42857,-32.85714 0,-18.1465 14.07105,-32.85715 31.42857,-32.85715 17.35752,0 31.42857,14.71065 31.42857,32.85715 z"
       transform="matrix(0.16658346,0,0,0.22076991,158.368,310.89184)" />
    <path
       sodipodi:type="arc"
       style="fill:#de8787;fill-opacity:1;stroke:#000000;stroke-width:1.5"
       id="path2998"
       sodipodi:cx="272.85715"
       sodipodi:cy="508.07648"
       sodipodi:rx="15.714286"
       sodipodi:ry="15.714286"
       d="m 288.57143,508.07648 c 0,8.67876 -7.03552,15.71428 -15.71428,15.71428 -8.67876,0 -15.71429,-7.03552 -15.71429,-15.71428 0,-8.67876 7.03553,-15.71429 15.71429,-15.71429 8.67876,0 15.71428,7.03553 15.71428,15.71429 z"
       transform="matrix(0.16658346,0,0,0.22076991,153.2753,283.76867)" />
  </g>
</svg>
