<?xml version="1.0" encoding="UTF-8" standalone="no"?>
<!-- Created with Inkscape (http://www.inkscape.org/) -->

<svg
   xmlns:dc="http://purl.org/dc/elements/1.1/"
   xmlns:cc="http://creativecommons.org/ns#"
   xmlns:rdf="http://www.w3.org/1999/02/22-rdf-syntax-ns#"
   xmlns:svg="http://www.w3.org/2000/svg"
   xmlns="http://www.w3.org/2000/svg"
   xmlns:sodipodi="http://sodipodi.sourceforge.net/DTD/sodipodi-0.dtd"
   xmlns:inkscape="http://www.inkscape.org/namespaces/inkscape"
   width="99.996887"
   height="99.885483"
   id="svg3104"
   version="1.1"
   inkscape:version="0.48.2 r9819"
   sodipodi:docname="New document 5">
  <defs
     id="defs3106" />
  <sodipodi:namedview
     id="base"
     pagecolor="#ffffff"
     bordercolor="#666666"
     borderopacity="1.0"
     inkscape:pageopacity="0.0"
     inkscape:pageshadow="2"
     inkscape:zoom="0.35"
     inkscape:cx="257.85544"
     inkscape:cy="167.81798"
     inkscape:document-units="px"
     inkscape:current-layer="layer1"
     showgrid="false"
     fit-margin-top="0"
     fit-margin-left="0"
     fit-margin-right="0"
     fit-margin-bottom="0"
     inkscape:window-width="1516"
     inkscape:window-height="769"
     inkscape:window-x="20"
     inkscape:window-y="42"
     inkscape:window-maximized="0" />
  <metadata
     id="metadata3109">
    <rdf:RDF>
      <cc:Work
         rdf:about="">
        <dc:format>image/svg+xml</dc:format>
        <dc:type
           rdf:resource="http://purl.org/dc/dcmitype/StillImage" />
        <dc:title></dc:title>
      </cc:Work>
    </rdf:RDF>
  </metadata>
  <g
     inkscape:label="Layer 1"
     inkscape:groupmode="layer"
     id="layer1"
     transform="translate(-117.14456,-746.97963)">
    <path
       sodipodi:type="arc"
       style="fill:#000000;fill-opacity:1"
       id="path3118"
       sodipodi:cx="-778.57141"
       sodipodi:cy="489.50504"
       sodipodi:rx="141.42857"
       sodipodi:ry="131.42857"
       d="m -637.14284,489.50504 c 0,72.58599 -63.31973,131.42857 -141.42857,131.42857 -78.10885,0 -141.42857,-58.84258 -141.42857,-131.42857 0,-72.586 63.31972,-131.42858 141.42857,-131.42858 78.10884,0 141.42857,58.84258 141.42857,131.42858 z"
       transform="matrix(0.35352434,0,0,-0.37999911,442.38695,982.93385)" />
    <path
       sodipodi:type="arc"
       style="fill:#000000;fill-opacity:1"
       id="path3112"
       sodipodi:cx="378.57144"
       sodipodi:cy="558.07648"
       sodipodi:rx="172.85715"
       sodipodi:ry="177.14285"
       d="m 551.42859,558.07648 c 0,97.83329 -77.39078,177.14285 -172.85715,177.14285 -95.46636,0 -172.85715,-79.30956 -172.85715,-177.14285 0,-97.8333 77.39079,-177.14286 172.85715,-177.14286 95.46637,0 172.85715,79.30956 172.85715,177.14286 z"
       transform="matrix(0.22210053,0,0,-0.23320535,79.193131,926.45222)" />
    <path
       style="fill:#ffffff;stroke:#000000;stroke-width:0.21353316px;stroke-linecap:butt;stroke-linejoin:miter;stroke-opacity:1"
       d="m 165.51914,754.37933 1.19039,43.77544 -42.25912,-1.25072 c -1.30584,-22.70907 4.62646,-41.29878 41.06873,-42.52472 z"
       id="path3114"
       inkscape:connector-curvature="0"
       sodipodi:nodetypes="cccc" />
    <path
       style="fill:#ffffff;fill-opacity:1"
       d="m 166.93962,799.34993 c 0.16469,0.80128 0.47699,10.30592 0.69397,21.1214 l 0.39452,19.66451 5.43522,-0.37588 c 6.91425,-0.47816 13.7841,-2.28577 19.26131,-5.06809 10.4604,-5.31368 15.60022,-15.06943 15.62695,-29.66108 l 0.0103,-5.64125 -7.29144,-0.36271 c -4.01029,-0.19948 -13.39769,-0.5362 -20.86088,-0.74825 l -13.56945,-0.38554 0.29947,1.45689 z"
       id="path3116"
       inkscape:connector-curvature="0" />
  </g>
</svg>
