<?xml version="1.0" encoding="UTF-8" standalone="no"?>
<!-- Created with Inkscape (http://www.inkscape.org/) -->

<svg
   xmlns:dc="http://purl.org/dc/elements/1.1/"
   xmlns:cc="http://creativecommons.org/ns#"
   xmlns:rdf="http://www.w3.org/1999/02/22-rdf-syntax-ns#"
   xmlns:svg="http://www.w3.org/2000/svg"
   xmlns="http://www.w3.org/2000/svg"
   xmlns:sodipodi="http://sodipodi.sourceforge.net/DTD/sodipodi-0.dtd"
   xmlns:inkscape="http://www.inkscape.org/namespaces/inkscape"
   width="122"
   height="109.14788"
   id="svg2"
   version="1.1"
   inkscape:version="0.48.2 r9819"
   sodipodi:docname="greenleftlight.svg">
  <defs
     id="defs4" />
  <sodipodi:namedview
     id="base"
     pagecolor="#ffffff"
     bordercolor="#666666"
     borderopacity="1.0"
     inkscape:pageopacity="0.0"
     inkscape:pageshadow="2"
     inkscape:zoom="1.4"
     inkscape:cx="77.99873"
     inkscape:cy="106.18825"
     inkscape:document-units="px"
     inkscape:current-layer="layer1"
     showgrid="false"
     fit-margin-top="0"
     fit-margin-left="0"
     fit-margin-right="0.1"
     fit-margin-bottom="0"
     inkscape:window-width="1258"
     inkscape:window-height="702"
     inkscape:window-x="0"
     inkscape:window-y="22"
     inkscape:window-maximized="0" />
  <metadata
     id="metadata7">
    <rdf:RDF>
      <cc:Work
         rdf:about="">
        <dc:format>image/svg+xml</dc:format>
        <dc:type
           rdf:resource="http://purl.org/dc/dcmitype/StillImage" />
        <dc:title></dc:title>
      </cc:Work>
    </rdf:RDF>
  </metadata>
  <g
     inkscape:label="Layer 1"
     inkscape:groupmode="layer"
     id="layer1"
     transform="translate(-100.0707,-590.60645)">
    <path
       style="fill:#000000;fill-opacity:1"
       d="m 148.08585,694.58941 c -0.68952,-2.65295 -0.56715,-3.24818 1.10373,-5.36878 l 1.87923,-2.38505 -4.63819,-5.39576 c -11.25198,-13.08978 -38.82966,-47.59699 -38.89711,-48.67088 -0.0222,-0.3541 -1.19406,-2.28142 -2.60406,-4.28294 -3.39908,-4.82502 -5.212169,-11.087 -4.80131,-16.58245 0.47266,-6.32194 4.46957,-13.19658 9.79745,-16.85155 17.00835,-11.66784 40.13487,1.02658 39.84226,21.86989 -0.0285,2.03354 0.76258,18.44964 1.75806,36.48024 1.6438,29.77367 1.95745,32.81191 3.41685,33.09896 5.94748,1.16982 8.05645,7.68681 3.72046,11.4967 -3.86514,3.39618 -9.26071,1.65755 -10.57737,-3.40838 l 0,0 z"
       id="path3102"
       inkscape:connector-curvature="0" />
    <path
       style="fill:#008000;fill-opacity:1"
       d="m 149.14114,675.91627 c 0.23714,-0.34141 -0.47948,-12.40886 -1.59385,-26.81691 -1.11438,-14.40803 -1.74151,-27.91969 -1.39366,-30.02587 0.79166,-4.79297 -6.47296,-26.14717 -23.11182,-21.8628 -9.26878,2.38663 -1.8718,-1.88722 -9.82956,4.2133 -7.90028,6.05645 -8.4872,18.40989 -1.54238,25.48659 -0.74651,1.43637 6.63807,14.6682 17.04514,26.94372 10.40705,12.27547 19.16315,22.4008 19.45788,22.50077 0.29478,0.0999 0.73047,-0.0975 0.96821,-0.43879 z"
       id="path2986"
       inkscape:connector-curvature="0"
       inkscape:transform-center-x="-58.037894"
       inkscape:transform-center-y="-4.3018185"
       sodipodi:nodetypes="cscsscsccc" />
  </g>
</svg>
